<svg width="25" height="25" viewBox="0 0 25 25" fill="none" xmlns="http://www.w3.org/2000/svg">
<path opacity="0.4" d="M17.7373 0H7.26242C2.71247 0 0 2.71247 0 7.26242V17.7248C0 22.2873 2.71247 24.9997 7.26242 24.9997H17.7248C22.2748 24.9997 24.9872 22.2873 24.9872 17.7373V7.26242C24.9997 2.71247 22.2873 0 17.7373 0Z" fill="white"/>
<path d="M24.7878 1.93775C23.4753 5.20022 20.5003 9.46267 17.6503 12.2501C17.2378 9.67517 15.1879 7.66269 12.5879 7.30019C15.3879 4.45023 19.6753 1.42526 22.9503 0.100274C23.5253 -0.124723 24.1128 0.050275 24.4628 0.412771C24.8503 0.787767 25.0253 1.36276 24.7878 1.93775Z" fill="white"/>
<path opacity="0.4" d="M17.6495 12.2375C17.1495 12.725 16.6495 13.175 16.1745 13.55L14.2121 15.125C13.9621 15.3 13.7121 15.45 13.4371 15.575C13.4371 15.3875 13.4121 15.2 13.3996 15C13.2871 14.175 12.9121 13.3875 12.2371 12.7125C11.5496 12.0375 10.7246 11.65 9.8871 11.5375C9.6871 11.5126 9.47461 11.5126 9.28711 11.5126C9.39961 11.2001 9.56211 10.9126 9.7746 10.6751L11.3371 8.71258C11.7121 8.23759 12.1371 7.76259 12.5996 7.2876C15.187 7.65009 17.2495 9.67507 17.6495 12.2375Z" fill="white"/>
<path d="M13.4381 15.5871C13.4381 16.6871 13.0131 17.7371 12.2256 18.5246C11.6131 19.137 10.8006 19.562 9.80065 19.687L7.35068 19.962C6.01319 20.112 4.8632 18.962 5.0132 17.6121L5.2882 15.1621C5.5257 12.9746 7.35068 11.5746 9.28816 11.5371C9.47565 11.5246 9.68815 11.5371 9.88815 11.5621C10.7381 11.6746 11.5506 12.0621 12.2381 12.7371C12.9006 13.3996 13.2881 14.1996 13.4006 15.0246C13.4131 15.2121 13.4381 15.3996 13.4381 15.5871Z" fill="white"/>
</svg>
