<svg xmlns="http://www.w3.org/2000/svg" width="11" height="8" viewBox="0 0 11 8" fill="none">
  <path d="M8.62121 0.306729C8.79289 0.143281 9.02135 0.0529202 9.25839 0.0547137C9.49543 0.0565072 9.7225 0.150315 9.89169 0.316342C10.0609 0.482369 10.159 0.707629 10.1652 0.944591C10.1715 1.18155 10.0855 1.41168 9.92527 1.58642L5.06246 7.66798C4.97884 7.75804 4.87792 7.83032 4.76573 7.88049C4.65354 7.93066 4.53239 7.95769 4.40951 7.95996C4.28664 7.96224 4.16457 7.93971 4.0506 7.89373C3.93663 7.84775 3.8331 7.77926 3.74621 7.69235L0.521395 4.46754C0.431589 4.38386 0.359558 4.28295 0.309599 4.17082C0.25964 4.0587 0.232776 3.93766 0.230611 3.81493C0.228446 3.6922 0.251023 3.57029 0.296995 3.45647C0.342968 3.34265 0.411394 3.23926 0.498192 3.15246C0.58499 3.06567 0.688381 2.99724 0.802198 2.95127C0.916014 2.90529 1.03793 2.88272 1.16066 2.88488C1.28339 2.88705 1.40443 2.91391 1.51655 2.96387C1.62867 3.01383 1.72959 3.08586 1.81327 3.17567L4.36533 5.72651L8.59805 0.333541C8.60567 0.324158 8.61381 0.315206 8.62243 0.306729H8.62121Z" fill="#0F1011"/>
</svg>