<svg width="17" height="16" viewBox="0 0 17 16" fill="none" xmlns="http://www.w3.org/2000/svg">
<path d="M15.0392 2.62681C14.1659 4.80681 12.1726 7.65348 10.2726 9.51348C9.99924 7.79348 8.62591 6.44681 6.89258 6.20681C8.75924 4.30014 11.6259 2.28014 13.8126 1.40014C14.1992 1.25347 14.5859 1.36681 14.8259 1.60681C15.0792 1.86014 15.1992 2.24014 15.0392 2.62681Z" fill="#76777D"/>
<path opacity="0.4" d="M10.273 9.51345C9.93969 9.84012 9.60635 10.1401 9.28635 10.3935L7.97302 11.4468C7.80635 11.5668 7.63969 11.6668 7.45302 11.7468C7.45302 11.6201 7.43969 11.4935 7.42635 11.3601C7.35302 10.8068 7.09969 10.2801 6.65302 9.83345C6.19302 9.38012 5.64635 9.12012 5.07969 9.04679C4.94635 9.03345 4.80635 9.02679 4.67969 9.03345C4.75302 8.82679 4.86635 8.63345 5.00635 8.47345L6.04635 7.16012C6.29302 6.84679 6.57969 6.52679 6.89302 6.20679C8.62635 6.44679 9.99969 7.79345 10.273 9.51345Z" fill="#76777D"/>
<path d="M7.45383 11.7467C7.45383 12.48 7.17383 13.18 6.64049 13.7067C6.23383 14.12 5.68716 14.4 5.02049 14.48L3.38716 14.66C2.49383 14.76 1.72716 13.9934 1.82716 13.0934L2.00716 11.4534C2.16716 9.99338 3.38716 9.06004 4.68049 9.03338C4.80716 9.02671 4.94716 9.03338 5.08049 9.04671C5.64716 9.12004 6.19383 9.38004 6.65383 9.83338C7.10049 10.28 7.35383 10.8067 7.42716 11.36C7.44049 11.4934 7.45383 11.62 7.45383 11.7467Z" fill="#76777D"/>
</svg>
