<svg width="16" height="16" viewBox="0 0 16 16" fill="none" xmlns="http://www.w3.org/2000/svg">
<path d="M14.0195 14.6667H9.32617C9.04617 14.6667 8.82617 14.4401 8.82617 14.1667C8.82617 13.8934 9.05284 13.6667 9.32617 13.6667H14.0195C14.2995 13.6667 14.5195 13.8934 14.5195 14.1667C14.5195 14.4401 14.2995 14.6667 14.0195 14.6667Z" fill="white"/>
<path opacity="0.4" d="M10.2727 10.8933L7.106 14.06C6.366 14.8 5.17936 14.84 4.3927 14.18C4.34603 14.14 4.30603 14.1 4.26603 14.06L3.68603 13.48L2.49267 12.2866L1.91935 11.7133C1.87268 11.6666 1.83268 11.62 1.79268 11.5733C1.13935 10.7866 1.18602 9.6133 1.91935 8.87997L4.37935 6.42664L5.08602 5.71997L10.2727 10.8933Z" fill="white"/>
<path d="M14.0812 7.09329L10.2745 10.8933L5.08789 5.71996L8.89457 1.91996C9.67457 1.13996 10.9545 1.13996 11.7345 1.91996L14.0812 4.25996C14.8612 5.03996 14.8612 6.31329 14.0812 7.09329Z" fill="white"/>
</svg>
