<svg width="19" height="16" viewBox="0 0 19 16" fill="none" xmlns="http://www.w3.org/2000/svg">
<path d="M16.9165 10.2982C16.6086 10.2331 16.2878 10.2168 15.9542 10.2168H3.12328C2.76402 10.2168 2.41759 10.2494 2.08398 10.3145C2.26362 9.85852 2.52023 9.43516 2.82817 9.04431L6.99821 3.73531C8.75605 1.52052 11.6045 1.52052 13.3624 3.73531L15.6078 6.61773C16.4289 7.6437 16.8652 8.94653 16.9165 10.2982Z" fill="white"/>
<ellipse cx="9.50025" cy="7.8428" rx="7.41626" ry="4.12015" fill="white"/>
<ellipse cx="9.49987" cy="11.1387" rx="9.06432" ry="4.12015" fill="white"/>
<path d="M6.93741 9.3729C6.13362 8.5691 5.67692 7.49129 5.67692 6.3404C5.67692 5.44526 5.96007 4.54099 6.59945 3.71893L8.18877 1.72771C9.05651 0.640763 10.7372 0.640763 11.614 1.73685L13.2034 3.72807C14.6283 5.50007 14.3177 7.85665 12.9293 9.29982C12.8015 9.44597 12.637 9.59211 12.4726 9.71999C11.7693 10.2589 10.8924 10.5695 9.89684 10.5786C8.92863 10.5786 8.0609 10.2772 7.37585 9.75652C7.2297 9.62865 7.07442 9.50991 6.93741 9.3729Z" fill="white"/>
</svg>
