<svg width="16" height="17" viewBox="0 0 16 17" fill="none" xmlns="http://www.w3.org/2000/svg">
<path d="M3.33333 4.50001V13.8333C3.33333 14.187 3.47381 14.5261 3.72386 14.7762C3.97391 15.0262 4.31304 15.1667 4.66667 15.1667H11.3333C11.687 15.1667 12.0261 15.0262 12.2761 14.7762C12.5262 14.5261 12.6667 14.187 12.6667 13.8333V4.50001H3.33333ZM3.33333 4.50001H2M3.33333 4.50001H14M5.33333 4.50001V3.16668C5.33333 2.81305 5.47381 2.47392 5.72386 2.22387C5.97391 1.97382 6.31304 1.83334 6.66667 1.83334H9.33333C9.68696 1.83334 10.0261 1.97382 10.2761 2.22387C10.5262 2.47392 10.6667 2.81305 10.6667 3.16668V4.50001" stroke="current" stroke-width="1.33333" stroke-linecap="round" stroke-linejoin="round"/>
</svg>
