<svg xmlns="http://www.w3.org/2000/svg" width="173" height="18" viewBox="0 0 173 18" fill="none">
  <path d="M166.228 14.1836C162.823 14.1836 160.428 12.1133 160.428 9.15333C160.428 6.19334 162.823 4.10596 166.228 4.10596C169.633 4.10596 172.011 6.19334 172.011 9.15333C172.011 12.1133 169.633 14.1836 166.228 14.1836ZM162.669 9.15333C162.669 10.967 164.141 12.2673 166.228 12.2673C168.332 12.2673 169.787 10.967 169.787 9.15333C169.787 7.32258 168.332 6.02225 166.228 6.02225C164.141 6.02225 162.669 7.32258 162.669 9.15333Z" fill="white"/>
  <path d="M155.853 13.8931V4.38009H157.974V13.8931H155.853ZM155.459 1.30034C155.459 0.598841 156.092 0 156.93 0C157.735 0 158.368 0.598841 158.368 1.30034C158.368 2.05317 157.735 2.65201 156.93 2.65201C156.092 2.65201 155.459 2.05317 155.459 1.30034Z" fill="white"/>
  <path d="M146.583 14.1847C143.452 14.1847 141.348 12.0631 141.348 9.13733C141.348 6.02336 143.675 4.10707 146.566 4.10707C148.294 4.10707 149.646 4.80857 150.416 5.81804H150.467V0.206055H152.606V10.9167C152.606 12.4737 152.743 13.141 152.965 13.8938H150.844C150.655 13.295 150.587 12.9186 150.604 12.4737H150.553C149.68 13.6543 148.174 14.1847 146.583 14.1847ZM143.572 9.13733C143.572 10.9339 145.009 12.2513 146.994 12.2513C148.979 12.2513 150.518 10.951 150.518 9.12022C150.518 7.28948 148.944 6.02336 146.994 6.02336C145.009 6.02336 143.572 7.3237 143.572 9.13733Z" fill="white"/>
  <path d="M133.204 14.1842C130.946 14.1842 129.098 13.0037 129.098 10.3517V4.38037H131.236V9.63306C131.236 11.3782 132.366 12.268 133.803 12.268C135.668 12.268 136.729 10.9847 136.729 9.56462V4.38037H138.867V10.9163C138.867 12.4219 139.004 13.0892 139.244 13.8934H137.105C136.934 13.3459 136.848 12.901 136.848 12.5588H136.814C136.061 13.6025 134.829 14.1842 133.204 14.1842Z" fill="white"/>
  <path d="M124.988 14.184C121.669 14.184 121.669 11.9255 121.669 10.916V6.21087C120.916 6.21087 120.163 6.21087 119.41 6.21087V4.38013H121.669C121.669 3.47332 121.669 2.54939 121.669 1.64258H123.807V4.38013C124.902 4.38013 125.997 4.38013 127.092 4.38013V6.21087H123.807C123.807 7.54543 123.807 8.87999 123.807 10.2146C123.807 11.1556 123.807 12.3362 125.381 12.3362C125.895 12.3362 126.511 12.1993 127.092 11.9597V13.7905C126.511 14.0642 125.724 14.184 124.988 14.184Z" fill="white"/>
  <path d="M112.899 14.1841C110.127 14.1841 107.561 12.9009 106.723 10.2489L108.827 9.5474C109.477 11.515 111.137 12.2165 112.882 12.2165C114.473 12.2165 116.133 11.6006 116.133 10.3002C116.133 8.96567 114.456 8.62347 113.07 8.26417L111.616 7.88775C110.093 7.51134 107.27 6.63874 107.27 4.1065C107.27 1.69403 109.802 0.273926 112.643 0.273926C115.414 0.273926 117.45 1.65981 118.066 3.40501L115.996 4.20916C115.466 2.99437 114.251 2.22443 112.54 2.22443C110.897 2.22443 109.631 2.92593 109.631 3.93541C109.631 5.23575 111.684 5.76615 112.728 6.0399L114.354 6.46765C115.962 6.89539 118.563 7.52845 118.563 10.0265C118.563 12.4389 116.15 14.1841 112.899 14.1841Z" fill="white"/>
  <path d="M95.8557 14.1836C93.4432 14.1836 91.5954 13.1057 91.0137 11.5145L92.9984 10.8985C93.5459 12.0106 94.7436 12.5068 95.8386 12.5068C96.6428 12.5068 97.8576 12.2331 97.8576 11.3605C97.8576 10.5392 96.7796 10.2997 95.8899 10.0773L94.7265 9.80349C93.4946 9.51263 91.5441 8.79402 91.5441 6.9975C91.5441 5.16676 93.4775 4.10596 95.582 4.10596C97.7036 4.10596 99.2777 5.13254 99.7738 6.48421L97.7891 7.10016C97.464 6.39866 96.6941 5.7656 95.4622 5.7656C94.4527 5.7656 93.6999 6.19334 93.6999 6.84351C93.6999 7.699 95.0345 8.02408 96.0097 8.24651L97.0021 8.46894C98.08 8.72558 100.133 9.18754 100.133 11.1552C100.133 12.9517 98.4222 14.1836 95.8557 14.1836Z" fill="white"/>
  <path d="M83.3514 17.9306C81.1614 17.9306 79.0056 17.3489 78.0645 15.1931L80.0151 14.5258C80.5455 15.6379 81.5891 16.2025 83.3001 16.2025C85.2335 16.2025 86.6878 15.2615 86.6878 12.8661V12.216H86.6365C85.7981 13.3794 84.3438 13.8585 82.821 13.8585C79.5702 13.8585 77.5684 11.6342 77.5684 8.98223C77.5684 6.1249 79.8268 4.10596 82.7697 4.10596C84.5149 4.10596 85.9179 4.80746 86.6878 5.85115H86.7221V4.37971H88.8266V12.8661C88.8266 16.7329 86.3114 17.9306 83.3514 17.9306ZM79.7926 8.94801C79.7926 10.6077 81.2469 11.9251 83.2146 11.9251C85.1993 11.9251 86.7392 10.6077 86.7392 8.94801C86.7392 7.27126 85.1822 6.02225 83.2146 6.02225C81.2298 6.02225 79.7926 7.30547 79.7926 8.94801Z" fill="white"/>
  <path d="M65.3066 13.8927V4.37971H67.394V5.90248H67.4282C68.3008 4.65347 69.721 4.10596 71.2095 4.10596C73.2627 4.10596 75.2816 5.21809 75.2816 7.90432V13.8927H73.1429V8.79402C73.1429 7.21993 72.219 6.02225 70.508 6.02225C68.6773 6.02225 67.4282 7.08305 67.4282 8.86246V13.8927H65.3066Z" fill="white"/>
  <path d="M59.9267 13.8931V4.38009H62.0483V13.8931H59.9267ZM59.5332 1.30034C59.5332 0.598841 60.1663 0 61.0046 0C61.8088 0 62.4419 0.598841 62.4419 1.30034C62.4419 2.05317 61.8088 2.65201 61.0046 2.65201C60.1663 2.65201 59.5332 2.05317 59.5332 1.30034Z" fill="white"/>
  <path d="M46.8613 13.8938V0.206055H48.9829V5.90359H49.0343C49.9069 4.63747 51.2927 4.10707 52.7642 4.10707C54.8174 4.10707 56.8363 5.2192 56.8363 7.90543V13.8938H54.6976V8.79513C54.6976 7.22104 53.7737 6.02336 52.0627 6.02336C50.2319 6.02336 48.9829 7.10127 48.9829 8.86357V13.8938H46.8613Z" fill="white"/>
  <path d="M37.6271 2.53307H32.4941V0.54834H45.0356V2.53307H39.8855V13.8939H37.6271V2.53307Z" fill="white"/>
  <path d="M21.1127 14.1836C17.7079 14.1836 15.3125 12.1133 15.3125 9.15333C15.3125 6.19334 17.7079 4.10596 21.1127 4.10596C24.5175 4.10596 26.8958 6.19334 26.8958 9.15333C26.8958 12.1133 24.5175 14.1836 21.1127 14.1836ZM17.5539 9.15333C17.5539 10.967 19.0253 12.2673 21.1127 12.2673C23.2172 12.2673 24.6715 10.967 24.6715 9.15333C24.6715 7.32258 23.2172 6.02225 21.1127 6.02225C19.0253 6.02225 17.5539 7.32258 17.5539 9.15333Z" fill="white"/>
  <path d="M0 13.8939V0.54834H5.91997C11.2582 0.54834 13.5167 3.52543 13.5167 7.13558C13.5167 11.105 10.762 13.8939 6.10817 13.8939H0ZM2.27559 11.9092H5.97129C8.87995 11.9092 11.1384 10.6089 11.1384 7.25535C11.1384 3.50832 8.40088 2.53307 5.37245 2.53307H2.27559C2.27559 5.5786 2.27559 8.86367 2.27559 11.9092Z" fill="white"/>
</svg>