<svg width="32" height="32" viewBox="0 0 32 32" fill="none" xmlns="http://www.w3.org/2000/svg">
<path d="M0 5H9.95145C18.7231 5 22.4335 9.89027 22.4335 15.8225C22.4335 22.3447 17.9071 26.9263 10.2602 26.9263H0V5ZM9.84119 23.078C14.1415 23.078 17.852 21.4736 17.852 16.0486C17.852 9.75244 13.0995 8.85378 8.85431 8.85378H4.38856V23.078H9.84119Z" fill="white"/>
<path d="M28.1739 26.2703C30.287 26.2703 32.0001 24.772 32.0001 22.9237C32.0001 21.0755 30.287 19.5771 28.1739 19.5771C26.0607 19.5771 24.3477 21.0755 24.3477 22.9237C24.3477 24.772 26.0607 26.2703 28.1739 26.2703Z" fill="white"/>
</svg>
