<svg xmlns="http://www.w3.org/2000/svg" width="17" height="16" viewBox="0 0 17 16" fill="none">
  <path d="M13.4992 4.99927L12.5059 5.9926L10.5059 3.9926L11.4992 2.99927C11.7792 2.71927 12.1392 2.58594 12.4992 2.58594C12.8592 2.58594 13.2192 2.71927 13.4992 2.99927C14.0525 3.5526 14.0525 4.44594 13.4992 4.99927Z" fill="white"/>
  <path opacity="0.4" d="M12.5063 5.99414L4.83297 13.6675C4.27964 14.2208 3.3863 14.2208 2.83297 13.6675C2.27964 13.1141 2.27964 12.2208 2.83297 11.6675L10.5063 3.99414L12.5063 5.99414Z" fill="white"/>
  <path d="M7.13302 2.33237L7.40635 1.4057C7.43302 1.31903 7.40635 1.2257 7.34635 1.15903C7.28635 1.09237 7.17969 1.0657 7.09302 1.09237L6.16635 1.3657L5.23969 1.09237C5.15302 1.0657 5.05969 1.09237 4.99302 1.15237C4.92635 1.21903 4.90635 1.31237 4.93302 1.39903L5.19969 2.33237L4.92635 3.25903C4.89969 3.3457 4.92635 3.43903 4.98635 3.5057C5.05302 3.57237 5.14635 3.59237 5.23302 3.5657L6.16635 3.29903L7.09302 3.57237C7.11969 3.57903 7.13969 3.5857 7.16635 3.5857C7.23302 3.5857 7.29302 3.55903 7.34635 3.51237C7.41302 3.4457 7.43302 3.35237 7.40635 3.2657L7.13302 2.33237Z" fill="white"/>
  <path d="M4.467 6.33237L4.74034 5.4057C4.767 5.31903 4.74034 5.2257 4.68034 5.15903C4.61367 5.09237 4.52034 5.07237 4.43367 5.09903L3.50034 5.3657L2.57367 5.09237C2.487 5.0657 2.39367 5.09237 2.327 5.15237C2.26034 5.21903 2.24034 5.31237 2.267 5.39904L2.53367 6.33237L2.26034 7.25904C2.23367 7.3457 2.26034 7.43903 2.32034 7.5057C2.387 7.57237 2.48034 7.59237 2.567 7.5657L3.49367 7.29237L4.42034 7.5657C4.44034 7.57237 4.467 7.57237 4.49367 7.57237C4.56034 7.57237 4.62034 7.5457 4.67367 7.49903C4.74034 7.43237 4.76034 7.33903 4.73367 7.25237L4.467 6.33237Z" fill="white"/>
  <path d="M14.4665 9.66664L14.7398 8.73997C14.7665 8.6533 14.7398 8.55997 14.6798 8.4933C14.6131 8.42664 14.5198 8.40664 14.4331 8.4333L13.5065 8.70664L12.5798 8.4333C12.4931 8.40664 12.3998 8.4333 12.3331 8.4933C12.2665 8.55997 12.2465 8.6533 12.2731 8.73997L12.5465 9.66664L12.2731 10.5933C12.2465 10.68 12.2731 10.7733 12.3331 10.84C12.3998 10.9066 12.4931 10.9266 12.5798 10.9L13.5065 10.6266L14.4331 10.9C14.4531 10.9066 14.4798 10.9066 14.5065 10.9066C14.5731 10.9066 14.6331 10.88 14.6865 10.8333C14.7531 10.7666 14.7731 10.6733 14.7465 10.5866L14.4665 9.66664Z" fill="white"/>
</svg>