
<svg width="16" height="16" viewBox="0 0 16 16" fill="none" xmlns="http://www.w3.org/2000/svg">
<path opacity="0.4" d="M14.0195 14.667H9.32617C9.04617 14.667 8.82617 14.4403 8.82617 14.167C8.82617 13.8937 9.05284 13.667 9.32617 13.667H14.0195C14.2995 13.667 14.5195 13.8937 14.5195 14.167C14.5195 14.4403 14.2995 14.667 14.0195 14.667Z" fill="#76777D"/>
<path d="M10.2727 10.8931L7.106 14.0597C6.366 14.7997 5.17936 14.8397 4.3927 14.1797C4.34603 14.1397 4.30603 14.0997 4.26603 14.0597L3.68603 13.4797L2.49267 12.2864L1.91935 11.7131C1.87268 11.6664 1.83268 11.6197 1.79268 11.5731C1.13935 10.7864 1.18602 9.61306 1.91935 8.87973L4.37935 6.42639L5.08602 5.71973L10.2727 10.8931Z" fill="#76777D"/>
<path opacity="0.4" d="M14.0812 7.09329L10.2745 10.8933L5.08789 5.71996L8.89457 1.91996C9.67457 1.13996 10.9545 1.13996 11.7345 1.91996L14.0812 4.25996C14.8612 5.03996 14.8612 6.31329 14.0812 7.09329Z" fill="#76777D"/>
</svg>
