<svg xmlns="http://www.w3.org/2000/svg" width="16" height="16" viewBox="0 0 16 16" fill="none">
  <g clip-path="url(#clip0_7180_37487)">
    <path d="M6.58773 6.58643C6.39123 6.76952 6.23362 6.99033 6.12431 7.23566C6.015 7.48099 5.95622 7.74582 5.95148 8.01437C5.94675 8.28291 5.99614 8.54965 6.09673 8.79869C6.19732 9.04772 6.34704 9.27394 6.53696 9.46386C6.72688 9.65378 6.9531 9.8035 7.20213 9.90409C7.45117 10.0047 7.71791 10.0541 7.98645 10.0493C8.255 10.0446 8.51983 9.98582 8.76516 9.87651C9.01049 9.7672 9.2313 9.60959 9.41439 9.41309" stroke="#76777D" stroke-width="1.33333" stroke-linecap="round" stroke-linejoin="round"/>
    <path d="M7.1543 3.38683C7.43517 3.35184 7.71792 3.33402 8.00096 3.3335C12.6676 3.3335 14.6676 8.00016 14.6676 8.00016C14.3696 8.63824 13.9958 9.23812 13.5543 9.78683" stroke="#76777D" stroke-width="1.33333" stroke-linecap="round" stroke-linejoin="round"/>
    <path d="M4.40732 4.40674C3.08148 5.30982 2.02057 6.55024 1.33398 8.00007C1.33398 8.00007 3.33398 12.6667 8.00065 12.6667C9.27792 12.6702 10.5278 12.2968 11.594 11.5934" stroke="#76777D" stroke-width="1.33333" stroke-linecap="round" stroke-linejoin="round"/>
    <path d="M1.33398 1.3335L14.6673 14.6668" stroke="#76777D" stroke-width="1.33333" stroke-linecap="round" stroke-linejoin="round"/>
  </g>
  <defs>
    <clipPath id="clip0_7180_37487">
      <rect width="16" height="16" fill="white"/>
    </clipPath>
  </defs>
</svg>