<svg width="24" height="24" viewBox="0 0 24 24" fill="none" xmlns="http://www.w3.org/2000/svg">
<path d="M14.7109 1.75C12.2267 1.75 10.2109 3.7658 10.2109 6.25C10.2109 8.7342 12.2267 10.75 14.7109 10.75C17.1951 10.75 19.2109 8.7342 19.2109 6.25C19.2109 3.7658 17.1951 1.75 14.7109 1.75Z" fill="white"/>
<path opacity="0.4" d="M6.35928 13.0303C4.52928 13.0303 3.0293 14.5203 3.0293 16.3603C3.0293 18.2003 4.51928 19.6903 6.35928 19.6903C8.18928 19.6903 9.6893 18.2003 9.6893 16.3603C9.6893 14.5203 8.18928 13.0303 6.35928 13.0303Z" fill="white"/>
<path opacity="0.4" d="M16.6205 16.6201C15.0705 16.6201 13.8105 17.8801 13.8105 19.4301C13.8105 20.9801 15.0705 22.2401 16.6205 22.2401C18.1705 22.2401 19.4305 20.9801 19.4305 19.4301C19.4305 17.8801 18.1705 16.6201 16.6205 16.6201Z" fill="white"/>
</svg>
