<svg xmlns="http://www.w3.org/2000/svg" width="16" height="16" viewBox="0 0 16 16" fill="none">
  <path d="M12.7038 2.27781C13.1488 2.46218 13.5531 2.73242 13.8936 3.07309C14.2342 3.41359 14.5045 3.81788 14.6889 4.26285C14.8732 4.70782 14.9681 5.18476 14.9681 5.66642C14.9681 6.14808 14.8732 6.62502 14.6889 7.06999C14.5045 7.51496 14.2342 7.91925 13.8936 8.25975L13.1869 8.96642L8.00024 14.1531L2.81358 8.96642L2.10691 8.25975C1.41911 7.57196 1.03271 6.63911 1.03271 5.66642C1.03271 4.69373 1.41911 3.76088 2.10691 3.07309C2.7947 2.38529 3.72755 1.99889 4.70024 1.99889C5.67293 1.99889 6.60578 2.38529 7.29358 3.07309L8.00024 3.77975L8.70691 3.07309C9.04741 2.73242 9.4517 2.46218 9.89667 2.27781C10.3416 2.09343 10.8186 1.99854 11.3002 1.99854C11.7819 1.99854 12.2588 2.09343 12.7038 2.27781Z" stroke="current" stroke-width="1.33333" stroke-linecap="round" stroke-linejoin="round"/>
</svg>