<svg width="17" height="16" viewBox="0 0 17 16" fill="none" xmlns="http://www.w3.org/2000/svg">
<g clip-path="url(#clip0_1690_4754)">
<path d="M13.5036 2.27805C13.9485 2.46243 14.3528 2.73267 14.6933 3.07333C15.034 3.41383 15.3042 3.81812 15.4886 4.26309C15.673 4.70807 15.7679 5.185 15.7679 5.66666C15.7679 6.14832 15.673 6.62526 15.4886 7.07023C15.3042 7.51521 15.034 7.91949 14.6933 8.26L13.9867 8.96666L8.79999 14.1533L3.61332 8.96666L2.90665 8.26C2.21886 7.5722 1.83246 6.63935 1.83246 5.66666C1.83246 4.69397 2.21886 3.76112 2.90665 3.07333C3.59445 2.38554 4.5273 1.99914 5.49999 1.99914C6.47267 1.99914 7.40552 2.38554 8.09332 3.07333L8.79999 3.78L9.50665 3.07333C9.84716 2.73267 10.2514 2.46243 10.6964 2.27805C11.1414 2.09368 11.6183 1.99878 12.1 1.99878C12.5816 1.99878 13.0586 2.09368 13.5036 2.27805Z" stroke="current" stroke-width="1.33333" stroke-linecap="round" stroke-linejoin="round"/>
</g>
<defs>
<clipPath id="clip0_1690_4754">
<rect width="16" height="16" fill="white" transform="translate(0.799988)"/>
</clipPath>
</defs>
</svg>
