<svg xmlns="http://www.w3.org/2000/svg" width="16" height="16" viewBox="0 0 16 16" fill="none">
  <g clip-path="url(#clip0_4728_8142)">
    <path d="M6.06065 5.99967C6.21738 5.55411 6.52675 5.17841 6.93395 4.93909C7.33455 4.70365 7.7898 4.62679 8.22457 4.69053C8.70801 4.76142 9.16611 5.00615 9.49558 5.40004C9.86186 5.83795 10.0349 6.42021 9.83809 6.99967C9.58231 7.75256 8.79346 8.38429 7.94732 8.66633M8.00065 11.333H8.00732M14.6673 7.99967C14.6673 11.6816 11.6825 14.6663 8.00065 14.6663C4.31875 14.6663 1.33398 11.6816 1.33398 7.99967C1.33398 4.31778 4.31875 1.33301 8.00065 1.33301C11.6825 1.33301 14.6673 4.31778 14.6673 7.99967Z" stroke="current" stroke-width="1.33333" stroke-linecap="round" stroke-linejoin="round"/>
  </g>
  <defs>
    <clipPath id="clip0_4728_8142">
      <rect width="16" height="16" fill="white"/>
    </clipPath>
  </defs>
</svg>