<svg
    xmlns="http://www.w3.org/2000/svg"
    width="16"
    height="16"
    viewBox="0 0 16 16"
    fill="none"
>
    <g clip-path="url(#clip0_3623_589)">
    <path
        d="M15.4375 9.0625C15.1266 9.0625 14.875 8.81094 14.875 8.5C14.875 7.57188 14.6938 6.67188 14.3344 5.82344C13.9887 5.00665 13.4884 4.26439 12.8609 3.6375C12.2347 3.00925 11.4923 2.5088 10.675 2.16406C9.82813 1.80625 8.92813 1.625 8 1.625C7.68906 1.625 7.4375 1.37344 7.4375 1.0625C7.4375 0.751563 7.68906 0.5 8 0.5C9.07969 0.5 10.1281 0.710938 11.1141 1.12969C12.0672 1.53125 12.9219 2.10938 13.6563 2.84375C14.3906 3.57812 14.9672 4.43438 15.3703 5.38594C15.7875 6.37188 15.9984 7.42031 15.9984 8.5C16 8.81094 15.7484 9.0625 15.4375 9.0625Z"
        fill="#AEAFB5"
    />
    </g>
    <defs>
    <clipPath id="clip0_3623_589">
        <rect
        width="16"
        height="16"
        fill="white"
        transform="translate(0 0.5)"
        />
    </clipPath>
    </defs>
</svg>