<svg xmlns="http://www.w3.org/2000/svg" width="16" height="17" viewBox="0 0 16 17" fill="none">
  <path d="M4.66667 7.83331V5.16665C4.66667 4.28259 5.01786 3.43475 5.64298 2.80962C6.2681 2.1845 7.11595 1.83331 8 1.83331C8.88406 1.83331 9.7319 2.1845 10.357 2.80962C10.9821 3.43475 11.3333 4.28259 11.3333 5.16665V7.83331M3.33333 7.83331H12.6667C13.403 7.83331 14 8.43027 14 9.16665V13.8333C14 14.5697 13.403 15.1666 12.6667 15.1666H3.33333C2.59695 15.1666 2 14.5697 2 13.8333V9.16665C2 8.43027 2.59695 7.83331 3.33333 7.83331Z" stroke="white" stroke-width="1.33333" stroke-linecap="round" stroke-linejoin="round"/>
</svg>