<svg xmlns="http://www.w3.org/2000/svg" width="16" height="16" viewBox="0 0 16 16" fill="none">
  <g clip-path="url(#clip0_5099_2439)">
    <path d="M0.666016 6.66654H4.66602M0.666016 6.66654L3.75935 3.75989C4.47585 3.04303 5.36226 2.51936 6.33589 2.23774C7.30951 1.95612 8.33861 1.92572 9.32716 2.14939C10.3157 2.37306 11.2315 2.84351 11.989 3.51683C12.7466 4.19016 13.3212 5.04441 13.6593 5.99989M0.666016 6.66654V2.66654M15.3327 13.3332V9.33321M15.3327 9.33321L12.2393 12.2399C11.5229 12.9567 10.6364 13.4804 9.66281 13.762C8.68918 14.0437 7.66009 14.0741 6.67154 13.8504C5.68299 13.6267 4.76722 13.1563 4.00966 12.4829C3.2521 11.8096 2.67746 10.9554 2.33935 9.99989M15.3327 9.33321H11.3327" stroke="current" stroke-width="1.33333" stroke-linecap="round" stroke-linejoin="round"/>
  </g>
  <defs>
    <clipPath id="clip0_5099_2439">
      <rect width="16" height="16" fill="white"/>
    </clipPath>
  </defs>
</svg>