<svg xmlns="http://www.w3.org/2000/svg" width="16" height="16" viewBox="0 0 16 16" fill="none">
  <path d="M13.66 10.0007C13.2266 11.2273 12.4064 12.2798 11.3228 12.9997C10.2392 13.7195 8.95097 14.0677 7.65228 13.9917C6.35359 13.9157 5.11477 13.4197 4.1225 12.5784C3.13024 11.7371 2.43828 10.5961 2.15091 9.32736C1.86354 8.05859 1.99632 6.73079 2.52924 5.54404C3.06217 4.35729 3.96636 3.3759 5.10557 2.74775C6.24478 2.1196 7.55729 1.87873 8.84531 2.06142C10.1333 2.24412 11.3271 2.84049 12.2467 3.76066L15.3333 6.66733M15.3333 6.66733L11.3333 6.66733M15.3333 6.66733L15.3333 2.66733" stroke="black" stroke-width="1.33333" stroke-linecap="round" stroke-linejoin="round"/>
</svg>